<?xml version="1.0" encoding="UTF-8"?>
<svg version="1.1" xmlns="http://www.w3.org/2000/svg" width="256" height="256">
<path d="M0 0 C20.48448978 16.1978265 34.52139818 38.78467191 37.7890625 64.85791016 C40.29515872 90.30754928 33.88224942 114.7881416 18.1875 135.125 C2.22606661 154.23591162 -18.94220739 167.8567599 -44 171 C-62.30553231 172.02002386 -79.72291306 171.24220244 -96.32421875 162.85546875 C-101.98356386 161.04613068 -107.39622219 163.3468662 -112.66796875 165.5390625 C-113.90293432 166.04181524 -115.13796217 166.54441501 -116.37304688 167.046875 C-118.29017016 167.8378887 -120.205682 168.63258062 -122.11987305 169.43066406 C-123.98617477 170.20541812 -125.85825988 170.96619422 -127.73046875 171.7265625 C-129.39178833 172.41613037 -129.39178833 172.41613037 -131.08666992 173.11962891 C-133.99909187 173.99972557 -135.22332502 174.1086466 -138 173 C-137.72212646 172.05157227 -137.44425293 171.10314453 -137.15795898 170.12597656 C-136.12856937 166.60279346 -135.11226675 163.0759468 -134.09985352 159.54785156 C-133.66005189 158.02208197 -133.21671876 156.49732568 -132.76977539 154.97363281 C-132.12753602 152.78187485 -131.49813194 150.58677317 -130.87109375 148.390625 C-130.66906845 147.7113092 -130.46704315 147.03199341 -130.25889587 146.33209229 C-129.2967463 142.91416203 -128.57568804 140.34285238 -130 137 C-131.13611817 135.37940252 -132.33229961 133.80038953 -133.5625 132.25 C-149.20623199 111.15764323 -154.11266802 85.53227993 -150.50390625 59.63671875 C-147.13602112 42.83534829 -139.46345557 26.74154238 -128 14 C-127.57090332 13.52175781 -127.14180664 13.04351562 -126.69970703 12.55078125 C-94.33437505 -23.00195899 -38.90858588 -28.39361217 0 0 Z M-101 35 C-103.82495532 39.59216482 -104.54778414 43.56605921 -104.5 48.875 C-104.49500488 49.61314941 -104.49000977 50.35129883 -104.48486328 51.11181641 C-103.81210553 72.91380731 -90.20778191 91.68171996 -75.02734375 106.30859375 C-59.40779748 120.4681758 -39.64579569 132.02684856 -17.9765625 131.40625 C-13.33353435 130.77255587 -10.44388059 129.10550805 -7 126 C-6.32710938 125.39542969 -5.65421875 124.79085937 -4.9609375 124.16796875 C-1.76759279 120.94281782 0.4295393 118.4805211 0.5 113.8125 C0.335 112.554375 0.17 111.29625 0 110 C-0.05889404 109.15228027 -0.11778809 108.30456055 -0.1784668 107.43115234 C-0.78858814 104.77243549 -0.78858814 104.77243549 -3.43676758 103.49853516 C-5.0246106 102.89984619 -5.0246106 102.89984619 -6.64453125 102.2890625 C-7.79630859 101.84949219 -8.94808594 101.40992188 -10.13476562 100.95703125 C-11.34841797 100.51746094 -12.56207031 100.07789063 -13.8125 99.625 C-15.01455078 99.16222656 -16.21660156 98.69945312 -17.45507812 98.22265625 C-24.12114229 95.24731726 -24.12114229 95.24731726 -31 96 C-33.60804361 98.28150807 -36.02071103 100.70859686 -38.46484375 103.1640625 C-41 105 -41 105 -43.5234375 104.9921875 C-48.39342366 103.04112049 -52.05471088 99.3800284 -56 96 C-56.81984375 95.32710938 -57.6396875 94.65421875 -58.484375 93.9609375 C-63.55042854 89.6531786 -67.90255968 84.97932648 -72.0625 79.8125 C-72.54001709 79.23032715 -73.01753418 78.6481543 -73.50952148 78.04833984 C-76.31088929 74.45527003 -78.02572413 71.61748121 -78 67 C-76.63671875 64.98828125 -76.63671875 64.98828125 -74.6875 63.3125 C-72.31519851 61.2192928 -70.78602006 59.67903008 -69 57 C-69.20626378 50.2471031 -72.05409139 44.25093227 -74.5625 38.0625 C-74.98724609 36.99708984 -75.41199219 35.93167969 -75.84960938 34.83398438 C-76.8929243 32.21983575 -77.94320233 29.60872048 -79 27 C-88.89419404 26.10060782 -94.68486329 26.825862 -101 35 Z " fill="#000000" transform="translate(182,44)"/>
<path d="M0 0 C9.19586957 7.90471784 17.88326875 16.38417715 24.19921875 26.80078125 C24.84117187 27.81011719 25.483125 28.81945313 26.14453125 29.859375 C42.38054602 56.55928523 46.9701242 88.19088474 39.77685547 118.54272461 C35.54672976 134.62113564 28.07574077 150.19477693 17.19921875 162.80078125 C16.46960938 163.66703125 15.74 164.53328125 14.98828125 165.42578125 C-1.33811378 184.21545693 -22.52742601 197.1717455 -46.80078125 202.80078125 C-47.69667969 203.01347656 -48.59257812 203.22617188 -49.515625 203.4453125 C-68.12262534 207.33459528 -87.15098829 206.16838748 -105.30859375 200.80078125 C-106.46101563 200.47078125 -107.6134375 200.14078125 -108.80078125 199.80078125 C-109.74080238 199.46558975 -109.74080238 199.46558975 -110.69981384 199.12362671 C-117.85045664 196.94048827 -122.79130634 199.03263197 -129.484375 201.83984375 C-130.57992203 202.27710785 -131.67546906 202.71437195 -132.80421448 203.16488647 C-136.29174421 204.5628415 -139.7647093 205.99354445 -143.23828125 207.42578125 C-145.56877228 208.36678847 -147.90014581 209.30561321 -150.23242188 210.2421875 C-154.53612824 211.97437871 -158.83449633 213.71852887 -163.12670898 215.47900391 C-164.54740189 216.06019989 -164.54740189 216.06019989 -165.99679565 216.65313721 C-167.89485386 217.42999398 -169.7919018 218.20932292 -171.6880188 218.99090576 C-172.58769379 219.35790588 -173.48736877 219.72490601 -174.41430664 220.10302734 C-175.21260391 220.43064056 -176.01090118 220.75825378 -176.83338928 221.09579468 C-178.80078125 221.80078125 -178.80078125 221.80078125 -180.80078125 221.80078125 C-178.95360473 212.96200032 -176.96589006 204.19535405 -174.52185059 195.50021362 C-173.44021797 191.65118258 -172.40008096 187.79130738 -171.35986328 183.9309082 C-170.81665513 181.9552631 -170.25549065 179.98447476 -169.67724609 178.01879883 C-165.75964551 166.43889685 -165.75964551 166.43889685 -167.16137695 154.77685547 C-169.00906939 151.49018185 -171.36219762 148.67055452 -173.80078125 145.80078125 C-188.91329264 120.27893203 -191.51956061 88.18761529 -184.296875 59.82177734 C-176.04058269 29.83155999 -155.79997751 4.4733569 -128.98828125 -11.01171875 C-88.54099159 -33.42615599 -35.88210524 -29.58907469 0 0 Z M-156.80078125 20.80078125 C-159.3804367 24.00344783 -161.62786636 27.31225536 -163.80078125 30.80078125 C-164.37183594 31.66574219 -164.94289063 32.53070313 -165.53125 33.421875 C-180.67526258 57.52525926 -184.6204906 87.17494774 -178.63525391 114.79516602 C-175.3758315 128.42360882 -169.39976957 143.95468195 -160.14208984 154.73168945 C-158.80078125 156.80078125 -158.80078125 156.80078125 -158.76293945 158.87695312 C-158.93656006 159.66650391 -159.11018066 160.45605469 -159.2890625 161.26953125 C-159.49869629 162.23890625 -159.70833008 163.20828125 -159.92431641 164.20703125 C-162.11431677 173.18664276 -164.38649872 182.14381173 -166.71362305 191.08886719 C-167.4100535 193.77229117 -168.09632532 196.45815125 -168.78125 199.14453125 C-168.99887497 199.96949097 -169.21649994 200.79445068 -169.4407196 201.64440918 C-170.65788091 206.22466952 -170.65788091 206.22466952 -169.80078125 210.80078125 C-169.2024498 210.56496841 -168.60411835 210.32915558 -167.98765564 210.0861969 C-161.74538988 207.62772583 -155.49904111 205.17985848 -149.25024414 202.73803711 C-146.92040902 201.82602449 -144.59161932 200.91133643 -142.26391602 199.99389648 C-138.91305119 198.67372873 -135.55851326 197.36330852 -132.203125 196.0546875 C-131.16743881 195.64424698 -130.13175262 195.23380646 -129.06468201 194.81092834 C-120.6801176 191.55866346 -115.22421389 189.83845962 -106.48828125 193.11328125 C-79.71004721 202.72614971 -50.74657459 199.870101 -25.11328125 188.11328125 C0.42854766 175.79909426 18.46134152 154.75543636 29.19921875 128.80078125 C29.59882813 127.84171875 29.9984375 126.88265625 30.41015625 125.89453125 C39.76966845 100.84200235 38.20368021 70.96298042 27.41015625 46.62890625 C14.45242235 18.98310892 -7.2126071 -1.40575446 -35.71289062 -12.45605469 C-79.91996702 -28.19112725 -126.20773744 -13.33007933 -156.80078125 20.80078125 Z " fill="#000000" transform="translate(197.80078125,30.19921875)"/>
</svg>
