<?xml version="1.0" encoding="UTF-8"?>
<svg version="1.1" xmlns="http://www.w3.org/2000/svg" width="256" height="256">
<path d="M0 0 C10.89546701 10.16267454 17.73930948 24.44664167 18.9921875 39.24145508 C19.07710449 40.2275325 19.16202148 41.21360992 19.24951172 42.22956848 C19.34256592 43.35343208 19.34256592 43.35343208 19.4375 44.5 C20.47320381 44.48334541 20.47320381 44.48334541 21.52983093 44.46635437 C28.71596339 44.35574053 35.90185406 44.2803235 43.08862305 44.2253418 C45.77088454 44.20302006 48.4525542 44.16823206 51.13452148 44.12280273 C54.98959255 44.06215475 58.8437577 44.03378873 62.69921875 44.01171875 C64.49790657 43.97300911 64.49790657 43.97300911 66.33293152 43.93351746 C75.60423029 43.93039344 75.60423029 43.93039344 78.67114258 46.90551758 C86.86336512 58.93851675 80.70639463 83.93359091 79.88793039 98.16445422 C79.71222114 101.22866632 79.5394365 104.29304081 79.36657703 107.35741478 C78.95862108 114.58773641 78.54561838 121.81775739 78.12939453 129.04760742 C77.70179226 136.47672202 77.28301378 143.90629774 76.86847126 151.33615154 C76.51012382 157.75303121 76.14622203 164.16957985 75.77794063 170.58589703 C75.55896136 174.40205491 75.34203605 178.21829981 75.1305275 182.03487968 C74.93171132 185.61821007 74.72591297 189.2010748 74.51492691 192.78370857 C74.40322346 194.70888952 74.29848746 196.63447086 74.19403076 198.56005859 C73.46025472 210.78391095 72.45989685 221.05643152 63.1875 229.8125 C54.61118363 236.39430001 44.85252086 235.93246003 34.50390625 235.88818359 C32.90143477 235.89225447 31.2989661 235.89759923 29.69650269 235.90411377 C25.36592026 235.9177319 21.03555345 235.91251158 16.7049675 235.90297651 C12.16080926 235.89535129 7.61666878 235.90243345 3.07250977 235.90713501 C-4.5568369 235.91258424 -12.18609629 235.90542283 -19.81542969 235.89111328 C-28.6206547 235.87478837 -37.42567127 235.88007747 -46.23089123 235.8965925 C-53.80738953 235.91023111 -61.3838253 235.91211543 -68.96033192 235.90427649 C-73.47821784 235.89961302 -77.99600596 235.8989385 -82.5138855 235.90888596 C-86.76246718 235.917588 -91.01078158 235.91147494 -95.25933456 235.89420319 C-96.81328768 235.89025557 -98.36726352 235.89134265 -99.92120743 235.89799118 C-111.84037943 235.94426363 -120.7130589 235.21140122 -129.61328125 226.74609375 C-137.30011678 217.88851774 -136.78204542 206.21718614 -137.41040039 195.12353516 C-137.48912374 193.7707786 -137.56809468 192.41803644 -137.64729309 191.06530762 C-137.86083663 187.4037019 -138.07056463 183.74188722 -138.27932668 180.08000612 C-138.45468494 177.00932507 -138.63179285 173.93874587 -138.80885214 170.86816251 C-139.22733574 163.60936979 -139.64258884 156.35039706 -140.0559082 149.09130859 C-140.48002572 141.64368442 -140.90988281 134.19640725 -141.34257513 126.74927676 C-141.71554043 120.3261932 -142.08468189 113.90289718 -142.45090669 107.47942579 C-142.66891556 103.65644759 -142.88831971 99.83356355 -143.11149788 96.01088333 C-144.70265976 68.70151374 -144.70265976 68.70151374 -144.85717773 58.31005859 C-144.87650864 57.07935638 -144.89583954 55.84865417 -144.91575623 54.58065796 C-144.51740195 51.10671131 -143.66545663 49.27109259 -141.5625 46.5 C-138.1758046 44.24220307 -137.04559149 44.25513217 -133.08129883 44.27294922 C-131.96036331 44.27310028 -130.8394278 44.27325134 -129.68452454 44.27340698 C-128.47507675 44.28372955 -127.26562897 44.29405212 -126.01953125 44.3046875 C-124.16143074 44.30893234 -124.16143074 44.30893234 -122.26579285 44.31326294 C-118.97611913 44.32256814 -115.68664137 44.34053209 -112.39703369 44.3626709 C-109.03880206 44.3831473 -105.68054172 44.39226848 -102.32226562 44.40234375 C-95.73560027 44.42441729 -89.14906617 44.45790478 -82.5625 44.5 C-82.5012796 43.7519812 -82.4400592 43.0039624 -82.37698364 42.23327637 C-82.25055984 40.75558777 -82.25055984 40.75558777 -82.12158203 39.24804688 C-82.03973663 38.27315308 -81.95789124 37.29825928 -81.87356567 36.29382324 C-80.267813 21.8718233 -72.0807016 8.24588609 -61.5625 -1.5 C-41.52635601 -16.5564006 -19.36259316 -15.64417129 0 0 Z M-58.25 12.125 C-65.65508698 21.14511755 -70.5625 32.79798888 -70.5625 44.5 C-44.8225 44.5 -19.0825 44.5 7.4375 44.5 C6.00588313 30.18383132 1.85629308 18.41163687 -8.83203125 8.3671875 C-24.77770336 -4.61753357 -44.17241907 -2.72437813 -58.25 12.125 Z M-62.796875 89.31640625 C-68.23115722 96.03712253 -69.2903337 102.48815554 -69.00390625 111.0625 C-67.99318549 118.9335997 -64.25818796 124.96393495 -58.06640625 129.8671875 C-50.72015575 134.65772214 -42.47683529 137.76386268 -34.34765625 140.953125 C-33.2505835 141.38455811 -32.15351074 141.81599121 -31.02319336 142.26049805 C-28.84758316 143.10969143 -26.66754574 143.94765375 -24.48266602 144.77270508 C-15.81498271 148.12795935 -6.91304559 151.79890883 -2.5625 160.5 C-0.2634882 166.56332782 0.11990413 172.29834823 -2.31640625 178.3828125 C-6.243959 185.9749856 -12.72876427 189.7207268 -20.5625 192.5 C-35.01163911 196.04767481 -49.0247365 191.86564743 -61.5625 184.5 C-62.27019531 183.95214844 -62.97789063 183.40429688 -63.70703125 182.83984375 C-65.46934342 181.26990334 -65.46934342 181.26990334 -67.6875 181.625 C-69.91575825 182.46718747 -69.91575825 182.46718747 -71.5625 185.5 C-71.73412523 187.53193201 -71.73412523 187.53193201 -70.5625 189.5 C-68.44130533 191.02965024 -66.47188247 192.26893681 -64.1875 193.5 C-63.5591626 193.84812744 -62.9308252 194.19625488 -62.28344727 194.55493164 C-48.72609868 201.88726491 -34.29235444 204.77071297 -19.03125 201.81640625 C-8.669649 198.59843481 0.44041549 192.88402216 5.69140625 183.18359375 C9.44734472 174.82106872 9.58508349 166.69679018 6.6640625 158.015625 C-0.76698277 142.77488248 -17.86457373 137.2058537 -32.625 131.5546875 C-33.50365723 131.21421387 -34.38231445 130.87374023 -35.28759766 130.52294922 C-37.00678109 129.85928803 -38.73024741 129.20657751 -40.45849609 128.56689453 C-47.7284023 125.76048087 -54.14845844 122.09610151 -58.5625 115.5 C-60.44154976 109.86285071 -60.46393313 103.76775589 -58.125 98.25 C-54.33456473 91.71248969 -47.90458688 88.64603576 -40.875 86.5625 C-26.40778394 83.50036428 -13.37784321 87.89932624 -0.5625 94.5 C0.7575 91.86 2.0775 89.22 3.4375 86.5 C-17.86303357 75.7466186 -44.4659398 69.65034388 -62.796875 89.31640625 Z " fill="#000000" transform="translate(159.5625,16.5)"/>
</svg>
